<?xml version="1.0" standalone="no"?>
<!DOCTYPE svg PUBLIC "-//W3C//DTD SVG 20010904//EN"
 "http://www.w3.org/TR/2001/REC-SVG-20010904/DTD/svg10.dtd">
<svg version="1.0" xmlns="http://www.w3.org/2000/svg"
 width="920.000000pt" height="773.000000pt" viewBox="0 0 920.000000 773.000000"
 preserveAspectRatio="xMidYMid meet">

<g transform="translate(0.000000,773.000000) scale(0.100000,-0.100000)"
fill="#FFFFFF" stroke="none">
<path d="M3565 7713 c-449 -38 -875 -146 -1270 -322 -1074 -479 -1871 -1419
-2170 -2556 -86 -327 -119 -596 -119 -970 0 -300 12 -446 60 -705 231 -1251
1086 -2324 2257 -2833 455 -197 907 -299 1397 -314 173 -5 218 -3 282 11 525
117 713 759 333 1142 -67 68 -96 89 -175 127 -114 55 -214 77 -347 77 -209 0
-518 51 -726 121 -653 218 -1185 684 -1478 1294 -367 764 -326 1636 111 2369
101 169 215 312 374 472 262 261 510 426 841 559 324 130 623 182 993 172 283
-7 516 -49 752 -134 398 -143 744 -373 1018 -675 338 -373 548 -812 626 -1314
29 -182 47 -189 -231 87 -270 266 -303 291 -463 340 -110 34 -273 32 -385 -4
-186 -61 -333 -189 -415 -363 -43 -91 -60 -173 -60 -289 0 -121 16 -191 71
-305 l41 -85 852 -851 851 -852 85 -41 c116 -56 195 -75 310 -74 115 0 196 19
310 75 l85 41 823 821 c453 452 839 842 857 867 130 175 168 411 99 617 -36
109 -84 187 -166 270 -78 79 -149 124 -245 157 -138 48 -268 55 -405 19 -153
-39 -215 -83 -445 -315 l-188 -190 -8 58 c-28 218 -40 300 -58 393 -172 882
-661 1692 -1364 2257 -608 489 -1322 777 -2090 843 -109 9 -524 11 -620 3z"/>
</g>
</svg>
